<svg width="40" height="45" viewBox="0 0 40 45" fill="none" xmlns="http://www.w3.org/2000/svg">
<g filter="url(#filter0_d_238_699)">
<path d="M13.8498 17.0377L5 6.45283V1H13.8498V17.0377Z" fill="url(#paint0_linear_238_699)"/>
<path d="M14.8028 21.8491L5 10.3019V21.8491H14.8028Z" fill="url(#paint1_linear_238_699)"/>
<path d="M18.4789 24.4151H5V35H9.76526L18.4789 24.4151Z" fill="url(#paint2_linear_238_699)"/>
<path d="M22.6995 23.4528L12.8967 35H22.6995V23.4528Z" fill="url(#paint3_linear_238_699)"/>
<path d="M32.0939 27.3019L25.1502 35V19.1226L32.0939 27.3019Z" fill="url(#paint4_linear_238_699)"/>
<path d="M34 13.9906H24.061L34 25.5377V13.9906Z" fill="url(#paint5_linear_238_699)"/>
<path d="M34 11.4245H20.385L27.3286 2.92453L34 11.4245Z" fill="url(#paint6_linear_238_699)"/>
<path d="M25.9671 1L16.1643 12.7075V1H25.9671Z" fill="url(#paint7_linear_238_699)"/>
<path d="M13.8498 17.0377L5 6.45283V1H13.8498V17.0377Z" stroke="url(#paint8_linear_238_699)"/>
<path d="M14.8028 21.8491L5 10.3019V21.8491H14.8028Z" stroke="url(#paint9_linear_238_699)"/>
<path d="M18.4789 24.4151H5V35H9.76526L18.4789 24.4151Z" stroke="url(#paint10_linear_238_699)"/>
<path d="M22.6995 23.4528L12.8967 35H22.6995V23.4528Z" stroke="url(#paint11_linear_238_699)"/>
<path d="M32.0939 27.3019L25.1502 35V19.1226L32.0939 27.3019Z" stroke="url(#paint12_linear_238_699)"/>
<path d="M34 13.9906H24.061L34 25.5377V13.9906Z" stroke="url(#paint13_linear_238_699)"/>
<path d="M34 11.4245H20.385L27.3286 2.92453L34 11.4245Z" stroke="url(#paint14_linear_238_699)"/>
<path d="M25.9671 1L16.1643 12.7075V1H25.9671Z" stroke="url(#paint15_linear_238_699)"/>
</g>
<defs>
<filter id="filter0_d_238_699" x="0.5" y="0.5" width="38.5281" height="43.8008" filterUnits="userSpaceOnUse" color-interpolation-filters="sRGB">
<feFlood flood-opacity="0" result="BackgroundImageFix"/>
<feColorMatrix in="SourceAlpha" type="matrix" values="0 0 0 0 0 0 0 0 0 0 0 0 0 0 0 0 0 0 127 0" result="hardAlpha"/>
<feOffset dy="4"/>
<feGaussianBlur stdDeviation="2"/>
<feComposite in2="hardAlpha" operator="out"/>
<feColorMatrix type="matrix" values="0 0 0 0 0 0 0 0 0 0 0 0 0 0 0 0 0 0 0.25 0"/>
<feBlend mode="normal" in2="BackgroundImageFix" result="effect1_dropShadow_238_699"/>
<feBlend mode="normal" in="SourceGraphic" in2="effect1_dropShadow_238_699" result="shape"/>
</filter>
<linearGradient id="paint0_linear_238_699" x1="5" y1="2.57407" x2="25.5285" y2="26.4054" gradientUnits="userSpaceOnUse">
<stop stop-color="#03346E"/>
<stop offset="1" stop-color="#0C79FA"/>
</linearGradient>
<linearGradient id="paint1_linear_238_699" x1="5" y1="2.57407" x2="25.5285" y2="26.4054" gradientUnits="userSpaceOnUse">
<stop stop-color="#03346E"/>
<stop offset="1" stop-color="#0C79FA"/>
</linearGradient>
<linearGradient id="paint2_linear_238_699" x1="5" y1="2.57407" x2="25.5285" y2="26.4054" gradientUnits="userSpaceOnUse">
<stop stop-color="#03346E"/>
<stop offset="1" stop-color="#0C79FA"/>
</linearGradient>
<linearGradient id="paint3_linear_238_699" x1="5" y1="2.57407" x2="25.5285" y2="26.4054" gradientUnits="userSpaceOnUse">
<stop stop-color="#03346E"/>
<stop offset="1" stop-color="#0C79FA"/>
</linearGradient>
<linearGradient id="paint4_linear_238_699" x1="5" y1="2.57407" x2="25.5285" y2="26.4054" gradientUnits="userSpaceOnUse">
<stop stop-color="#03346E"/>
<stop offset="1" stop-color="#0C79FA"/>
</linearGradient>
<linearGradient id="paint5_linear_238_699" x1="5" y1="2.57407" x2="25.5285" y2="26.4054" gradientUnits="userSpaceOnUse">
<stop stop-color="#03346E"/>
<stop offset="1" stop-color="#0C79FA"/>
</linearGradient>
<linearGradient id="paint6_linear_238_699" x1="5" y1="2.57407" x2="25.5285" y2="26.4054" gradientUnits="userSpaceOnUse">
<stop stop-color="#03346E"/>
<stop offset="1" stop-color="#0C79FA"/>
</linearGradient>
<linearGradient id="paint7_linear_238_699" x1="5" y1="2.57407" x2="25.5285" y2="26.4054" gradientUnits="userSpaceOnUse">
<stop stop-color="#03346E"/>
<stop offset="1" stop-color="#0C79FA"/>
</linearGradient>
<linearGradient id="paint8_linear_238_699" x1="5" y1="1" x2="26.6196" y2="25.2796" gradientUnits="userSpaceOnUse">
<stop stop-color="#03346E"/>
<stop offset="1" stop-color="#0C79FA"/>
</linearGradient>
<linearGradient id="paint9_linear_238_699" x1="5" y1="1" x2="26.6196" y2="25.2796" gradientUnits="userSpaceOnUse">
<stop stop-color="#03346E"/>
<stop offset="1" stop-color="#0C79FA"/>
</linearGradient>
<linearGradient id="paint10_linear_238_699" x1="5" y1="1" x2="26.6196" y2="25.2796" gradientUnits="userSpaceOnUse">
<stop stop-color="#03346E"/>
<stop offset="1" stop-color="#0C79FA"/>
</linearGradient>
<linearGradient id="paint11_linear_238_699" x1="5" y1="1" x2="26.6196" y2="25.2796" gradientUnits="userSpaceOnUse">
<stop stop-color="#03346E"/>
<stop offset="1" stop-color="#0C79FA"/>
</linearGradient>
<linearGradient id="paint12_linear_238_699" x1="5" y1="1" x2="26.6196" y2="25.2796" gradientUnits="userSpaceOnUse">
<stop stop-color="#03346E"/>
<stop offset="1" stop-color="#0C79FA"/>
</linearGradient>
<linearGradient id="paint13_linear_238_699" x1="5" y1="1" x2="26.6196" y2="25.2796" gradientUnits="userSpaceOnUse">
<stop stop-color="#03346E"/>
<stop offset="1" stop-color="#0C79FA"/>
</linearGradient>
<linearGradient id="paint14_linear_238_699" x1="5" y1="1" x2="26.6196" y2="25.2796" gradientUnits="userSpaceOnUse">
<stop stop-color="#03346E"/>
<stop offset="1" stop-color="#0C79FA"/>
</linearGradient>
<linearGradient id="paint15_linear_238_699" x1="5" y1="1" x2="26.6196" y2="25.2796" gradientUnits="userSpaceOnUse">
<stop stop-color="#03346E"/>
<stop offset="1" stop-color="#0C79FA"/>
</linearGradient>
</defs>
</svg>
