<!DOCTYPE svg PUBLIC "-//W3C//DTD SVG 1.1//EN" "http://www.w3.org/Graphics/SVG/1.1/DTD/svg11.dtd">
<!-- Uploaded to: SVG Repo, www.svgrepo.com, Transformed by: SVG Repo Mixer Tools -->
<svg height="800px" width="800px" version="1.1" id="Layer_1" xmlns="http://www.w3.org/2000/svg" xmlns:xlink="http://www.w3.org/1999/xlink" viewBox="0 0 512 512" xml:space="preserve" fill="#000000">
<g id="SVGRepo_bgCarrier" stroke-width="0"/>
<g id="SVGRepo_tracerCarrier" stroke-linecap="round" stroke-linejoin="round" stroke="#b3b3b3" stroke-width="25.6"> <g> <path style="fill:#212121;" d="M241.2,200l-12.8-17.6l0,0c-0.4-2-0.8-4.4-0.8-6.4c0-11.6,7.2-21.6,17.2-26l0,0h22l0,0 c10,4.4,17.2,14.4,17.2,26c0,2.4-0.4,4.4-0.8,6.4l-10,15.6c-4.8,3.6-10.8,6-17.2,6C250.4,204.4,245.6,202.8,241.2,200z"/> <path style="fill:#212121;" d="M241.6,200.4c-11.2,18-26,40-33.2,45.2c-12.8,9.2-30.4,6.4-39.6-6.4c-9.2-12.8-6.4-30.4,6.4-39.6 c7.2-5.2,32.8-12.4,53.2-17.6l0,0C230.4,190,234.8,196.4,241.6,200.4L241.6,200.4z"/> </g> <g> <path style="fill:#424242;" d="M360,480c8.8,0,14.8,7.2,14.8,16v12h-240v-12c0-8.8,8.4-16,17.2-16h38.8H316h3.2H360z"/> <path style="fill:#424242;" d="M256,4C160.8,4,84,81.2,84,176c0,72,44,133.6,106.8,159.2c20,8.4,42,12.8,65.2,12.8 c21.2,0,41.2-3.6,60-10.8c1.2-0.4,2-0.8,3.2-1.2c64-25.2,109.2-87.2,109.2-160C428,81.2,350.8,4,256,4z M256,327.6 c-83.6,0-151.6-68-151.6-151.6c0-84,68-151.6,151.6-151.6c28.4,0,54.8,7.6,77.2,21.2l28.4,21.6c28.4,27.6,46,66,46,108.8 C407.6,260,339.6,327.6,256,327.6z"/> </g> <path style="fill:#212121;" d="M336.8,200c12.8,9.2,15.6,26.8,6.4,39.6c-9.2,12.8-26.8,15.6-39.6,6.4c-7.2-5.2-21.2-26.4-32.4-44.4 l2-3.2c5.2-4,8.8-9.2,10-15.6l0,0C304,187.6,329.6,194.8,336.8,200z"/> <path style="fill:#FFFFFF;" d="M256,24.4c28.4,0,54.8,7.6,77.2,21.2l28.4,21.6c28.4,27.6,46,66,46,108.8c0,84-68,151.6-151.6,151.6 s-151.6-68-151.6-151.6C104.4,92,172.4,24.4,256,24.4z M168.8,239.6c9.2,12.4,26.8,15.6,39.6,6.4c7.2-5.2,22-27.6,33.2-45.2v-0.4 c4.4,2.8,9.2,4,14.8,4c6.4,0,12.4-2,17.2-6l-2,3.2c11.2,17.6,25.2,39.2,32.4,44.4c12.4,9.2,30.4,6.4,39.6-6.4 c9.2-12.8,6.4-30.4-6.4-39.6c-7.2-5.2-32.8-12.4-53.2-17.6l0,0c0.4-2,0.8-4.4,0.8-6.4c0-11.6-7.2-21.6-17.2-26 c8-19.6,17.2-44.4,17.2-53.2c0-15.6-12.8-28.4-28.4-28.4c-15.6,0-28.4,12.8-28.4,28.4c0,8.8,9.2,33.6,17.2,53.2 c-10,4.4-17.2,14.4-17.2,26c0,2.4,0.4,4.4,0.8,6.4c-20.4,5.2-46,12-53.2,17.6C162.4,209.2,159.6,226.8,168.8,239.6z"/> <path style="fill:#212121;" d="M256,68.4c15.6,0,28.4,12.8,28.4,28.4c0,8.8-9.2,33.6-17.2,53.2c-3.6-1.6-7.2-2.4-11.2-2.4 s-7.6,0.8-11.2,2.4c-8-19.6-17.2-44.4-17.2-53.2C227.6,81.2,240.4,68.4,256,68.4z"/> <path style="fill:#ff0000;" d="M256,380.4c6.8,0,12.4,5.6,12.4,12c0,6.8-5.6,12-12.4,12c-6.8,0-12.4-5.6-12.4-12 C243.6,385.6,249.2,380.4,256,380.4z"/> <path style="fill:#5c5e61;" d="M246,404.8c0,0,5.6,3.2,10,2.8c6-0.4,10-2.8,10-2.8V436c0,0-0.8,9.6-10,9.6c-10,0-10-9.6-10-9.6 V404.8z"/> <path style="fill:#2b76da;" d="M190.8,335.2c20,8.4,42,12.8,65.2,12.8c21.2,0,41.2-3.6,60-10.8V480H190.8V336V335.2z M243.6,392.4 c0,6.8,5.6,12,12.4,12c6.8,0,12.4-5.6,12.4-12c0-6.8-5.6-12.4-12.4-12.4C249.2,380.4,243.6,385.6,243.6,392.4z M256.8,408.8 c-4.4,0.4-10-2.8-10-2.8v30c0,0,0,8,10,8c9.2,0,10-8,10-8v-31.2C266.8,404.8,262.8,408.4,256.8,408.8z"/> <path d="M256,352c-23.2,0-45.6-4.4-66.8-13.2C122.8,311.6,80,248,80,176C80,78.8,158.8,0,256,0s176,78.8,176,176 c0,72.8-44,137.2-111.6,164c-1.2,0.4-2,0.8-3.2,1.2C297.6,348.4,277.2,352,256,352z M256,8C163.2,8,88,83.2,88,176 c0,68.4,40.8,129.6,104.4,155.6l0,0C212.4,340,234,344,256,344c20,0,40-3.6,58.4-10.4c1.2-0.4,2-0.8,2.8-1.2 C382,306.8,424,245.6,424,176C424,83.2,348.8,8,256,8z"/> <path d="M256,331.6c-86,0-155.6-70-155.6-155.6S170.4,20.4,256,20.4c28,0,55.6,7.6,79.2,21.6c2,1.2,2.4,3.6,1.2,5.6 s-3.6,2.4-5.6,1.2C308,35.2,282,28.4,255.6,28.4C174,28.4,108,94.8,108,176s66.4,147.6,147.6,147.6c81.6,0,147.6-66.4,147.6-147.6 c0-40.4-16-78-44.8-106c-1.6-1.6-1.6-4,0-5.6s4-1.6,5.6,0c30.4,29.6,47.2,69.2,47.2,112C411.6,262,342,331.6,256,331.6z"/> <path d="M244.8,154c-1.6,0-3.2-0.8-3.6-2.4c-11.6-29.2-17.6-47.2-17.6-54.8c0-18,14.4-32.4,32.4-32.4c17.6,0,32.4,14.4,32.4,32.4 c0,7.6-6,26.4-17.6,54.8c-0.8,2-3.2,3.2-5.2,2c-2-0.8-3.2-3.2-2-5.2c10.8-26.4,16.8-45.2,16.8-52c0-13.2-10.8-24.4-24.4-24.4 s-24.4,10.8-24.4,24.4c0,3.6,2.4,15.2,16.8,52c0.8,2,0,4.4-2.4,5.2C246,154,245.6,154,244.8,154z"/> <path d="M320.4,255.2c-6.4,0-13.2-2-18.8-6c-6.4-4.4-17.6-19.6-33.6-45.2c-1.2-2-0.4-4.4,1.2-5.6c2-1.2,4.4-0.4,5.6,1.2 c14.8,23.6,26,39.2,31.2,43.2c10.8,8,26,5.6,34-5.2c3.6-5.2,5.2-11.6,4.4-18c-1.2-6.4-4.4-12-9.6-16c-3.2-2.4-14-7.2-52-16.8 c-2-0.4-3.6-2.8-2.8-4.8c0.4-2,2.8-3.6,4.8-2.8c30,7.6,48.4,13.6,54.8,18c6.8,5.2,11.6,12.4,12.8,21.2c1.2,8.4-0.8,17.2-5.6,24 C340,250.4,330.4,255.2,320.4,255.2z"/> <path d="M191.6,255.2c-10,0-20-4.8-26-13.2c-5.2-6.8-7.2-15.6-5.6-24c1.2-8.4,6-16,12.8-21.2c6.4-4.4,24.8-10.8,54.8-18 c2-0.4,4.4,0.8,4.8,2.8s-0.8,4.4-2.8,4.8c-38,9.6-48.8,14.4-52,16.8c-5.2,4-8.8,9.6-9.6,16c-1.2,6.4,0.4,12.8,4.4,18 c8,10.8,23.2,13.2,34,5.2c3.2-2.4,11.2-10.8,32-44.4c1.2-2,3.6-2.4,5.6-1.2c2,1.2,2.4,3.6,1.2,5.6c-16.4,26.4-28,42-34,46.4 C204.8,253.2,198.4,255.2,191.6,255.2z"/> <path d="M256,208.4c-6,0-12-1.6-16.8-4.8c-7.2-4.4-12.4-11.6-14.4-20c0,0,0,0,0-0.4c-0.4-2.4-0.8-4.8-0.8-7.2 c0-13.2,7.6-24.8,19.6-29.6c8-3.2,17.2-3.2,25.2,0l0,0c12,5.2,19.6,16.8,19.6,29.6c0,2.4-0.4,5.2-0.8,7.6c-1.6,7.2-6,13.6-11.6,18 C270,206,263.2,208.4,256,208.4z M232.4,182c1.6,6,5.6,11.6,10.8,14.8c8.4,5.2,19.6,4.8,27.6-1.6c4.4-3.2,7.6-8,8.8-13.6 c0.4-2,0.8-3.6,0.8-5.6c0-9.6-6-18.4-14.8-22.4l0,0c-6-2.4-12.8-2.4-18.8,0C238,157.6,232,166,232,176C231.6,178,232,180,232.4,182 C232.4,181.6,232.4,181.6,232.4,182z"/> <path d="M190.8,484c-2.4,0-4-1.6-4-4V336c0-2.4,1.6-4,4-4s4,1.6,4,4v144C194.8,482.4,193.2,484,190.8,484z"/> <path d="M318.8,484c-2.4,0-4-1.6-4-4V336c0-2.4,1.6-4,4-4s4,1.6,4,4v144C322.8,482.4,321.2,484,318.8,484z"/> <path d="M374.8,512h-240c-2.4,0-4-1.6-4-4v-12c0-10.8,9.6-20,21.2-20h208c10.8,0,18.8,8.4,18.8,20v12 C378.8,510.4,377.2,512,374.8,512z M138.8,504h232v-8c0-6.8-4.4-12-10.8-12H152c-6.8,0-13.2,5.6-13.2,12V504z"/> <path d="M256,452.4c-8.8,0-16-7.2-16-16.4c0-2.4,1.6-4,4-4s4,1.6,4,4c0,4.4,3.6,8.4,8,8.4s8-4,8-8.4c0-2.4,1.6-4,4-4s4,1.6,4,4 C272,445.2,264.8,452.4,256,452.4z"/> <path d="M256,408.8c-8.8,0-16-7.2-16-16s7.2-16,16-16s16,7.2,16,16C272,401.6,264.8,408.8,256,408.8z M256,384.4c-4.4,0-8,3.6-8,8 s3.6,8,8,8s8-3.6,8-8S260.4,384.4,256,384.4z"/> <path d="M244,440c-2.4,0-4-1.6-4-4v-41.6c0-2.4,1.6-4,4-4s4,1.6,4,4V436C248,438.4,246,440,244,440z"/> <path d="M268,440c-2.4,0-4-1.6-4-4v-41.6c0-2.4,1.6-4,4-4s4,1.6,4,4V436C272,438.4,270.4,440,268,440z"/> <path d="M256,187.6c-6.4,0-11.6-5.2-11.6-11.6s5.2-12,11.6-12c2.4,0,4,1.6,4,4s-1.6,4-4,4c-2,0-3.6,1.6-3.6,4c0,2,1.6,3.6,3.6,3.6 s3.6-1.6,3.6-3.6c0-2.4,1.6-4,4-4s4,1.6,4,4C267.6,182.4,262.4,187.6,256,187.6z"/> </g>
<g id="SVGRepo_iconCarrier"> <g> <path style="fill:#212121;" d="M241.2,200l-12.8-17.6l0,0c-0.4-2-0.8-4.4-0.8-6.4c0-11.6,7.2-21.6,17.2-26l0,0h22l0,0 c10,4.4,17.2,14.4,17.2,26c0,2.4-0.4,4.4-0.8,6.4l-10,15.6c-4.8,3.6-10.8,6-17.2,6C250.4,204.4,245.6,202.8,241.2,200z"/> <path style="fill:#212121;" d="M241.6,200.4c-11.2,18-26,40-33.2,45.2c-12.8,9.2-30.4,6.4-39.6-6.4c-9.2-12.8-6.4-30.4,6.4-39.6 c7.2-5.2,32.8-12.4,53.2-17.6l0,0C230.4,190,234.8,196.4,241.6,200.4L241.6,200.4z"/> </g> <g> <path style="fill:#424242;" d="M360,480c8.8,0,14.8,7.2,14.8,16v12h-240v-12c0-8.8,8.4-16,17.2-16h38.8H316h3.2H360z"/> <path style="fill:#424242;" d="M256,4C160.8,4,84,81.2,84,176c0,72,44,133.6,106.8,159.2c20,8.4,42,12.8,65.2,12.8 c21.2,0,41.2-3.6,60-10.8c1.2-0.4,2-0.8,3.2-1.2c64-25.2,109.2-87.2,109.2-160C428,81.2,350.8,4,256,4z M256,327.6 c-83.6,0-151.6-68-151.6-151.6c0-84,68-151.6,151.6-151.6c28.4,0,54.8,7.6,77.2,21.2l28.4,21.6c28.4,27.6,46,66,46,108.8 C407.6,260,339.6,327.6,256,327.6z"/> </g> <path style="fill:#212121;" d="M336.8,200c12.8,9.2,15.6,26.8,6.4,39.6c-9.2,12.8-26.8,15.6-39.6,6.4c-7.2-5.2-21.2-26.4-32.4-44.4 l2-3.2c5.2-4,8.8-9.2,10-15.6l0,0C304,187.6,329.6,194.8,336.8,200z"/> <path style="fill:#FFFFFF;" d="M256,24.4c28.4,0,54.8,7.6,77.2,21.2l28.4,21.6c28.4,27.6,46,66,46,108.8c0,84-68,151.6-151.6,151.6 s-151.6-68-151.6-151.6C104.4,92,172.4,24.4,256,24.4z M168.8,239.6c9.2,12.4,26.8,15.6,39.6,6.4c7.2-5.2,22-27.6,33.2-45.2v-0.4 c4.4,2.8,9.2,4,14.8,4c6.4,0,12.4-2,17.2-6l-2,3.2c11.2,17.6,25.2,39.2,32.4,44.4c12.4,9.2,30.4,6.4,39.6-6.4 c9.2-12.8,6.4-30.4-6.4-39.6c-7.2-5.2-32.8-12.4-53.2-17.6l0,0c0.4-2,0.8-4.4,0.8-6.4c0-11.6-7.2-21.6-17.2-26 c8-19.6,17.2-44.4,17.2-53.2c0-15.6-12.8-28.4-28.4-28.4c-15.6,0-28.4,12.8-28.4,28.4c0,8.8,9.2,33.6,17.2,53.2 c-10,4.4-17.2,14.4-17.2,26c0,2.4,0.4,4.4,0.8,6.4c-20.4,5.2-46,12-53.2,17.6C162.4,209.2,159.6,226.8,168.8,239.6z"/> <path style="fill:#212121;" d="M256,68.4c15.6,0,28.4,12.8,28.4,28.4c0,8.8-9.2,33.6-17.2,53.2c-3.6-1.6-7.2-2.4-11.2-2.4 s-7.6,0.8-11.2,2.4c-8-19.6-17.2-44.4-17.2-53.2C227.6,81.2,240.4,68.4,256,68.4z"/> <path style="fill:#ff0000;" d="M256,380.4c6.8,0,12.4,5.6,12.4,12c0,6.8-5.6,12-12.4,12c-6.8,0-12.4-5.6-12.4-12 C243.6,385.6,249.2,380.4,256,380.4z"/> <path style="fill:#5c5e61;" d="M246,404.8c0,0,5.6,3.2,10,2.8c6-0.4,10-2.8,10-2.8V436c0,0-0.8,9.6-10,9.6c-10,0-10-9.6-10-9.6 V404.8z"/> <path style="fill:#2b76da;" d="M190.8,335.2c20,8.4,42,12.8,65.2,12.8c21.2,0,41.2-3.6,60-10.8V480H190.8V336V335.2z M243.6,392.4 c0,6.8,5.6,12,12.4,12c6.8,0,12.4-5.6,12.4-12c0-6.8-5.6-12.4-12.4-12.4C249.2,380.4,243.6,385.6,243.6,392.4z M256.8,408.8 c-4.4,0.4-10-2.8-10-2.8v30c0,0,0,8,10,8c9.2,0,10-8,10-8v-31.2C266.8,404.8,262.8,408.4,256.8,408.8z"/> <path d="M256,352c-23.2,0-45.6-4.4-66.8-13.2C122.8,311.6,80,248,80,176C80,78.8,158.8,0,256,0s176,78.8,176,176 c0,72.8-44,137.2-111.6,164c-1.2,0.4-2,0.8-3.2,1.2C297.6,348.4,277.2,352,256,352z M256,8C163.2,8,88,83.2,88,176 c0,68.4,40.8,129.6,104.4,155.6l0,0C212.4,340,234,344,256,344c20,0,40-3.6,58.4-10.4c1.2-0.4,2-0.8,2.8-1.2 C382,306.8,424,245.6,424,176C424,83.2,348.8,8,256,8z"/> <path d="M256,331.6c-86,0-155.6-70-155.6-155.6S170.4,20.4,256,20.4c28,0,55.6,7.6,79.2,21.6c2,1.2,2.4,3.6,1.2,5.6 s-3.6,2.4-5.6,1.2C308,35.2,282,28.4,255.6,28.4C174,28.4,108,94.8,108,176s66.4,147.6,147.6,147.6c81.6,0,147.6-66.4,147.6-147.6 c0-40.4-16-78-44.8-106c-1.6-1.6-1.6-4,0-5.6s4-1.6,5.6,0c30.4,29.6,47.2,69.2,47.2,112C411.6,262,342,331.6,256,331.6z"/> <path d="M244.8,154c-1.6,0-3.2-0.8-3.6-2.4c-11.6-29.2-17.6-47.2-17.6-54.8c0-18,14.4-32.4,32.4-32.4c17.6,0,32.4,14.4,32.4,32.4 c0,7.6-6,26.4-17.6,54.8c-0.8,2-3.2,3.2-5.2,2c-2-0.8-3.2-3.2-2-5.2c10.8-26.4,16.8-45.2,16.8-52c0-13.2-10.8-24.4-24.4-24.4 s-24.4,10.8-24.4,24.4c0,3.6,2.4,15.2,16.8,52c0.8,2,0,4.4-2.4,5.2C246,154,245.6,154,244.8,154z"/> <path d="M320.4,255.2c-6.4,0-13.2-2-18.8-6c-6.4-4.4-17.6-19.6-33.6-45.2c-1.2-2-0.4-4.4,1.2-5.6c2-1.2,4.4-0.4,5.6,1.2 c14.8,23.6,26,39.2,31.2,43.2c10.8,8,26,5.6,34-5.2c3.6-5.2,5.2-11.6,4.4-18c-1.2-6.4-4.4-12-9.6-16c-3.2-2.4-14-7.2-52-16.8 c-2-0.4-3.6-2.8-2.8-4.8c0.4-2,2.8-3.6,4.8-2.8c30,7.6,48.4,13.6,54.8,18c6.8,5.2,11.6,12.4,12.8,21.2c1.2,8.4-0.8,17.2-5.6,24 C340,250.4,330.4,255.2,320.4,255.2z"/> <path d="M191.6,255.2c-10,0-20-4.8-26-13.2c-5.2-6.8-7.2-15.6-5.6-24c1.2-8.4,6-16,12.8-21.2c6.4-4.4,24.8-10.8,54.8-18 c2-0.4,4.4,0.8,4.8,2.8s-0.8,4.4-2.8,4.8c-38,9.6-48.8,14.4-52,16.8c-5.2,4-8.8,9.6-9.6,16c-1.2,6.4,0.4,12.8,4.4,18 c8,10.8,23.2,13.2,34,5.2c3.2-2.4,11.2-10.8,32-44.4c1.2-2,3.6-2.4,5.6-1.2c2,1.2,2.4,3.6,1.2,5.6c-16.4,26.4-28,42-34,46.4 C204.8,253.2,198.4,255.2,191.6,255.2z"/> <path d="M256,208.4c-6,0-12-1.6-16.8-4.8c-7.2-4.4-12.4-11.6-14.4-20c0,0,0,0,0-0.4c-0.4-2.4-0.8-4.8-0.8-7.2 c0-13.2,7.6-24.8,19.6-29.6c8-3.2,17.2-3.2,25.2,0l0,0c12,5.2,19.6,16.8,19.6,29.6c0,2.4-0.4,5.2-0.8,7.6c-1.6,7.2-6,13.6-11.6,18 C270,206,263.2,208.4,256,208.4z M232.4,182c1.6,6,5.6,11.6,10.8,14.8c8.4,5.2,19.6,4.8,27.6-1.6c4.4-3.2,7.6-8,8.8-13.6 c0.4-2,0.8-3.6,0.8-5.6c0-9.6-6-18.4-14.8-22.4l0,0c-6-2.4-12.8-2.4-18.8,0C238,157.6,232,166,232,176C231.6,178,232,180,232.4,182 C232.4,181.6,232.4,181.6,232.4,182z"/> <path d="M190.8,484c-2.4,0-4-1.6-4-4V336c0-2.4,1.6-4,4-4s4,1.6,4,4v144C194.8,482.4,193.2,484,190.8,484z"/> <path d="M318.8,484c-2.4,0-4-1.6-4-4V336c0-2.4,1.6-4,4-4s4,1.6,4,4v144C322.8,482.4,321.2,484,318.8,484z"/> <path d="M374.8,512h-240c-2.4,0-4-1.6-4-4v-12c0-10.8,9.6-20,21.2-20h208c10.8,0,18.8,8.4,18.8,20v12 C378.8,510.4,377.2,512,374.8,512z M138.8,504h232v-8c0-6.8-4.4-12-10.8-12H152c-6.8,0-13.2,5.6-13.2,12V504z"/> <path d="M256,452.4c-8.8,0-16-7.2-16-16.4c0-2.4,1.6-4,4-4s4,1.6,4,4c0,4.4,3.6,8.4,8,8.4s8-4,8-8.4c0-2.4,1.6-4,4-4s4,1.6,4,4 C272,445.2,264.8,452.4,256,452.4z"/> <path d="M256,408.8c-8.8,0-16-7.2-16-16s7.2-16,16-16s16,7.2,16,16C272,401.6,264.8,408.8,256,408.8z M256,384.4c-4.4,0-8,3.6-8,8 s3.6,8,8,8s8-3.6,8-8S260.4,384.4,256,384.4z"/> <path d="M244,440c-2.4,0-4-1.6-4-4v-41.6c0-2.4,1.6-4,4-4s4,1.6,4,4V436C248,438.4,246,440,244,440z"/> <path d="M268,440c-2.4,0-4-1.6-4-4v-41.6c0-2.4,1.6-4,4-4s4,1.6,4,4V436C272,438.4,270.4,440,268,440z"/> <path d="M256,187.6c-6.4,0-11.6-5.2-11.6-11.6s5.2-12,11.6-12c2.4,0,4,1.6,4,4s-1.6,4-4,4c-2,0-3.6,1.6-3.6,4c0,2,1.6,3.6,3.6,3.6 s3.6-1.6,3.6-3.6c0-2.4,1.6-4,4-4s4,1.6,4,4C267.6,182.4,262.4,187.6,256,187.6z"/> </g>
</svg>