<!DOCTYPE svg PUBLIC "-//W3C//DTD SVG 1.1//EN" "http://www.w3.org/Graphics/SVG/1.1/DTD/svg11.dtd">
<!-- Uploaded to: SVG Repo, www.svgrepo.com, Transformed by: SVG Repo Mixer Tools -->
<svg version="1.1" id="Layer_1" xmlns="http://www.w3.org/2000/svg" xmlns:xlink="http://www.w3.org/1999/xlink" viewBox="0 0 512 512" xml:space="preserve" width="800px" height="800px" fill="#000000">
<g id="SVGRepo_bgCarrier" stroke-width="0"/>
<g id="SVGRepo_tracerCarrier" stroke-linecap="round" stroke-linejoin="round"/>
<g id="SVGRepo_iconCarrier"> <path style="fill:#FFE76D;" d="M108.129,357.729c0,27.24,54.804,51.692,147.87,51.692s147.87-24.453,147.87-51.692H108.129z"/> <path style="fill:#CFC8AB;" d="M462.595,347.497h-14.078c-3.479-81.16-57.145-149.314-130.754-174.201l-61.765-11.191 l-61.765,11.191C120.624,198.183,66.959,266.337,63.48,347.497H49.404c-4.637,0-8.393,3.757-8.393,8.393s3.757,8.393,8.393,8.393 h413.191c4.637,0,8.393-3.757,8.393-8.393S467.231,347.497,462.595,347.497z"/> <rect x="194.235" y="91.265" style="fill:#F0E6D1;" width="123.529" height="82.032"/> <rect x="194.235" y="57.691" style="fill:#CFC8AB;" width="123.529" height="33.574"/> <g> <path style="fill:#B4A990;" d="M317.764,82.875H194.235c-4.637,0-8.393,3.757-8.393,8.393s3.757,8.393,8.393,8.393h123.529 c4.637,0,8.393-3.757,8.393-8.393S322.401,82.875,317.764,82.875z"/> <path style="fill:#B4A990;" d="M194.235,66.08h123.529c4.637,0,8.393-3.757,8.393-8.393s-3.757-8.393-8.393-8.393h-9.49V28.84 c0-15.858-11.762-28.84-26.143-28.84h-52.263c-14.381,0-26.143,12.982-26.143,28.84v20.453h-9.49c-4.637,0-8.393,3.757-8.393,8.393 S189.598,66.08,194.235,66.08z"/> </g> <g> <path style="fill:#FFF2B1;" d="M255.999,512c-4.637,0-8.393-3.757-8.393-8.393v-58.869c0-4.637,3.757-8.393,8.393-8.393 c4.637,0,8.393,3.757,8.393,8.393v58.869C264.393,508.243,260.636,512,255.999,512z"/> <path style="fill:#FFF2B1;" d="M156.659,502.542c-1.09,0-2.197-0.213-3.262-0.664c-4.271-1.804-6.27-6.728-4.466-10.998 l23.399-55.397c1.805-4.272,6.733-6.268,10.998-4.466c4.271,1.804,6.27,6.728,4.466,10.998l-23.399,55.397 C163.042,500.616,159.931,502.542,156.659,502.542z"/> <path style="fill:#FFF2B1;" d="M355.34,502.545c-3.272,0-6.381-1.926-7.735-5.13l-23.399-55.398 c-1.803-4.269,0.196-9.194,4.466-10.998c4.265-1.803,9.193,0.196,10.998,4.466l23.399,55.398c1.803,4.269-0.196,9.194-4.466,10.998 C357.537,502.331,356.429,502.545,355.34,502.545z"/> </g> </g>
</svg>